<svg xmlns="http://www.w3.org/2000/svg" viewBox="0 0 1600 1200" width="1600" height="1200"><defs></defs><rect width="1600" height="1200" fill="#fbf6ec"/><rect x="30" y="30" width="1540" height="1140" rx="30" fill="none" stroke="#7a55c9" stroke-width="16"/><rect x="62" y="62" width="1476" height="1076" rx="20" fill="none" stroke="#f2b632" stroke-width="6" stroke-dasharray="2 14" stroke-linecap="round"/><rect x="90" y="90" width="1420" height="1020" rx="14" fill="none" stroke="#b7a2e8" stroke-width="4"/><g transform="translate(90.0 60) rotate(0)"><ellipse rx="11" ry="17.6" fill="#7a55c9" stroke="#1a1a24" stroke-width="2.0"/><path d="M-4.95 -8.8 q3.3 -4.928000000000001 7.699999999999999 -3.168" stroke="#fff" stroke-opacity=".6" stroke-width="1.8" stroke-linecap="round" fill="none"/></g><g transform="translate(90.0 1140) rotate(0)"><ellipse rx="11" ry="17.6" fill="#7a55c9" stroke="#1a1a24" stroke-width="2.0"/><path d="M-4.95 -8.8 q3.3 -4.928000000000001 7.699999999999999 -3.168" stroke="#fff" stroke-opacity=".6" stroke-width="1.8" stroke-linecap="round" fill="none"/></g><g transform="translate(131.76470588235293 60) rotate(40)"><ellipse rx="11" ry="17.6" fill="#b7a2e8" stroke="#1a1a24" stroke-width="2.0"/><path d="M-4.95 -8.8 q3.3 -4.928000000000001 7.699999999999999 -3.168" stroke="#fff" stroke-opacity=".6" stroke-width="1.8" stroke-linecap="round" fill="none"/></g><g transform="translate(131.76470588235293 1140) rotate(40)"><ellipse rx="11" ry="17.6" fill="#b7a2e8" stroke="#1a1a24" stroke-width="2.0"/><path d="M-4.95 -8.8 q3.3 -4.928000000000001 7.699999999999999 -3.168" stroke="#fff" stroke-opacity=".6" stroke-width="1.8" stroke-linecap="round" fill="none"/></g><g transform="translate(173.52941176470588 60) rotate(80)"><ellipse rx="11" ry="17.6" fill="#d94a3a" stroke="#1a1a24" stroke-width="2.0"/><path d="M-4.95 -8.8 q3.3 -4.928000000000001 7.699999999999999 -3.168" stroke="#fff" stroke-opacity=".6" stroke-width="1.8" stroke-linecap="round" fill="none"/></g><g transform="translate(173.52941176470588 1140) rotate(80)"><ellipse rx="11" ry="17.6" fill="#d94a3a" stroke="#1a1a24" stroke-width="2.0"/><path d="M-4.95 -8.8 q3.3 -4.928000000000001 7.699999999999999 -3.168" stroke="#fff" stroke-opacity=".6" stroke-width="1.8" stroke-linecap="round" fill="none"/></g><g transform="translate(215.29411764705884 60) rotate(120)"><ellipse rx="11" ry="17.6" fill="#3a2f86" stroke="#1a1a24" stroke-width="2.0"/><path d="M-4.95 -8.8 q3.3 -4.928000000000001 7.699999999999999 -3.168" stroke="#fff" stroke-opacity=".6" stroke-width="1.8" stroke-linecap="round" fill="none"/></g><g transform="translate(215.29411764705884 1140) rotate(120)"><ellipse rx="11" ry="17.6" fill="#3a2f86" stroke="#1a1a24" stroke-width="2.0"/><path d="M-4.95 -8.8 q3.3 -4.928000000000001 7.699999999999999 -3.168" stroke="#fff" stroke-opacity=".6" stroke-width="1.8" stroke-linecap="round" fill="none"/></g><g transform="translate(257.05882352941177 60) rotate(160)"><ellipse rx="11" ry="17.6" fill="#7a55c9" stroke="#1a1a24" stroke-width="2.0"/><path d="M-4.95 -8.8 q3.3 -4.928000000000001 7.699999999999999 -3.168" stroke="#fff" stroke-opacity=".6" stroke-width="1.8" stroke-linecap="round" fill="none"/></g><g transform="translate(257.05882352941177 1140) rotate(160)"><ellipse rx="11" ry="17.6" fill="#7a55c9" stroke="#1a1a24" stroke-width="2.0"/><path d="M-4.95 -8.8 q3.3 -4.928000000000001 7.699999999999999 -3.168" stroke="#fff" stroke-opacity=".6" stroke-width="1.8" stroke-linecap="round" fill="none"/></g><g transform="translate(298.82352941176475 60) rotate(20)"><ellipse rx="11" ry="17.6" fill="#b7a2e8" stroke="#1a1a24" stroke-width="2.0"/><path d="M-4.95 -8.8 q3.3 -4.928000000000001 7.699999999999999 -3.168" stroke="#fff" stroke-opacity=".6" stroke-width="1.8" stroke-linecap="round" fill="none"/></g><g transform="translate(298.82352941176475 1140) rotate(20)"><ellipse rx="11" ry="17.6" fill="#b7a2e8" stroke="#1a1a24" stroke-width="2.0"/><path d="M-4.95 -8.8 q3.3 -4.928000000000001 7.699999999999999 -3.168" stroke="#fff" stroke-opacity=".6" stroke-width="1.8" stroke-linecap="round" fill="none"/></g><g transform="translate(340.5882352941177 60) rotate(60)"><ellipse rx="11" ry="17.6" fill="#d94a3a" stroke="#1a1a24" stroke-width="2.0"/><path d="M-4.95 -8.8 q3.3 -4.928000000000001 7.699999999999999 -3.168" stroke="#fff" stroke-opacity=".6" stroke-width="1.8" stroke-linecap="round" fill="none"/></g><g transform="translate(340.5882352941177 1140) rotate(60)"><ellipse rx="11" ry="17.6" fill="#d94a3a" stroke="#1a1a24" stroke-width="2.0"/><path d="M-4.95 -8.8 q3.3 -4.928000000000001 7.699999999999999 -3.168" stroke="#fff" stroke-opacity=".6" stroke-width="1.8" stroke-linecap="round" fill="none"/></g><g transform="translate(382.35294117647055 60) rotate(100)"><ellipse rx="11" ry="17.6" fill="#3a2f86" stroke="#1a1a24" stroke-width="2.0"/><path d="M-4.95 -8.8 q3.3 -4.928000000000001 7.699999999999999 -3.168" stroke="#fff" stroke-opacity=".6" stroke-width="1.8" stroke-linecap="round" fill="none"/></g><g transform="translate(382.35294117647055 1140) rotate(100)"><ellipse rx="11" ry="17.6" fill="#3a2f86" stroke="#1a1a24" stroke-width="2.0"/><path d="M-4.95 -8.8 q3.3 -4.928000000000001 7.699999999999999 -3.168" stroke="#fff" stroke-opacity=".6" stroke-width="1.8" stroke-linecap="round" fill="none"/></g><g transform="translate(424.11764705882354 60) rotate(140)"><ellipse rx="11" ry="17.6" fill="#7a55c9" stroke="#1a1a24" stroke-width="2.0"/><path d="M-4.95 -8.8 q3.3 -4.928000000000001 7.699999999999999 -3.168" stroke="#fff" stroke-opacity=".6" stroke-width="1.8" stroke-linecap="round" fill="none"/></g><g transform="translate(424.11764705882354 1140) rotate(140)"><ellipse rx="11" ry="17.6" fill="#7a55c9" stroke="#1a1a24" stroke-width="2.0"/><path d="M-4.95 -8.8 q3.3 -4.928000000000001 7.699999999999999 -3.168" stroke="#fff" stroke-opacity=".6" stroke-width="1.8" stroke-linecap="round" fill="none"/></g><g transform="translate(465.88235294117646 60) rotate(0)"><ellipse rx="11" ry="17.6" fill="#b7a2e8" stroke="#1a1a24" stroke-width="2.0"/><path d="M-4.95 -8.8 q3.3 -4.928000000000001 7.699999999999999 -3.168" stroke="#fff" stroke-opacity=".6" stroke-width="1.8" stroke-linecap="round" fill="none"/></g><g transform="translate(465.88235294117646 1140) rotate(0)"><ellipse rx="11" ry="17.6" fill="#b7a2e8" stroke="#1a1a24" stroke-width="2.0"/><path d="M-4.95 -8.8 q3.3 -4.928000000000001 7.699999999999999 -3.168" stroke="#fff" stroke-opacity=".6" stroke-width="1.8" stroke-linecap="round" fill="none"/></g><g transform="translate(507.64705882352945 60) rotate(40)"><ellipse rx="11" ry="17.6" fill="#d94a3a" stroke="#1a1a24" stroke-width="2.0"/><path d="M-4.95 -8.8 q3.3 -4.928000000000001 7.699999999999999 -3.168" stroke="#fff" stroke-opacity=".6" stroke-width="1.8" stroke-linecap="round" fill="none"/></g><g transform="translate(507.64705882352945 1140) rotate(40)"><ellipse rx="11" ry="17.6" fill="#d94a3a" stroke="#1a1a24" stroke-width="2.0"/><path d="M-4.95 -8.8 q3.3 -4.928000000000001 7.699999999999999 -3.168" stroke="#fff" stroke-opacity=".6" stroke-width="1.8" stroke-linecap="round" fill="none"/></g><g transform="translate(549.4117647058824 60) rotate(80)"><ellipse rx="11" ry="17.6" fill="#3a2f86" stroke="#1a1a24" stroke-width="2.0"/><path d="M-4.95 -8.8 q3.3 -4.928000000000001 7.699999999999999 -3.168" stroke="#fff" stroke-opacity=".6" stroke-width="1.8" stroke-linecap="round" fill="none"/></g><g transform="translate(549.4117647058824 1140) rotate(80)"><ellipse rx="11" ry="17.6" fill="#3a2f86" stroke="#1a1a24" stroke-width="2.0"/><path d="M-4.95 -8.8 q3.3 -4.928000000000001 7.699999999999999 -3.168" stroke="#fff" stroke-opacity=".6" stroke-width="1.8" stroke-linecap="round" fill="none"/></g><g transform="translate(591.1764705882354 60) rotate(120)"><ellipse rx="11" ry="17.6" fill="#7a55c9" stroke="#1a1a24" stroke-width="2.0"/><path d="M-4.95 -8.8 q3.3 -4.928000000000001 7.699999999999999 -3.168" stroke="#fff" stroke-opacity=".6" stroke-width="1.8" stroke-linecap="round" fill="none"/></g><g transform="translate(591.1764705882354 1140) rotate(120)"><ellipse rx="11" ry="17.6" fill="#7a55c9" stroke="#1a1a24" stroke-width="2.0"/><path d="M-4.95 -8.8 q3.3 -4.928000000000001 7.699999999999999 -3.168" stroke="#fff" stroke-opacity=".6" stroke-width="1.8" stroke-linecap="round" fill="none"/></g><g transform="translate(632.9411764705882 60) rotate(160)"><ellipse rx="11" ry="17.6" fill="#b7a2e8" stroke="#1a1a24" stroke-width="2.0"/><path d="M-4.95 -8.8 q3.3 -4.928000000000001 7.699999999999999 -3.168" stroke="#fff" stroke-opacity=".6" stroke-width="1.8" stroke-linecap="round" fill="none"/></g><g transform="translate(632.9411764705882 1140) rotate(160)"><ellipse rx="11" ry="17.6" fill="#b7a2e8" stroke="#1a1a24" stroke-width="2.0"/><path d="M-4.95 -8.8 q3.3 -4.928000000000001 7.699999999999999 -3.168" stroke="#fff" stroke-opacity=".6" stroke-width="1.8" stroke-linecap="round" fill="none"/></g><g transform="translate(674.7058823529411 60) rotate(20)"><ellipse rx="11" ry="17.6" fill="#d94a3a" stroke="#1a1a24" stroke-width="2.0"/><path d="M-4.95 -8.8 q3.3 -4.928000000000001 7.699999999999999 -3.168" stroke="#fff" stroke-opacity=".6" stroke-width="1.8" stroke-linecap="round" fill="none"/></g><g transform="translate(674.7058823529411 1140) rotate(20)"><ellipse rx="11" ry="17.6" fill="#d94a3a" stroke="#1a1a24" stroke-width="2.0"/><path d="M-4.95 -8.8 q3.3 -4.928000000000001 7.699999999999999 -3.168" stroke="#fff" stroke-opacity=".6" stroke-width="1.8" stroke-linecap="round" fill="none"/></g><g transform="translate(716.4705882352941 60) rotate(60)"><ellipse rx="11" ry="17.6" fill="#3a2f86" stroke="#1a1a24" stroke-width="2.0"/><path d="M-4.95 -8.8 q3.3 -4.928000000000001 7.699999999999999 -3.168" stroke="#fff" stroke-opacity=".6" stroke-width="1.8" stroke-linecap="round" fill="none"/></g><g transform="translate(716.4705882352941 1140) rotate(60)"><ellipse rx="11" ry="17.6" fill="#3a2f86" stroke="#1a1a24" stroke-width="2.0"/><path d="M-4.95 -8.8 q3.3 -4.928000000000001 7.699999999999999 -3.168" stroke="#fff" stroke-opacity=".6" stroke-width="1.8" stroke-linecap="round" fill="none"/></g><g transform="translate(758.2352941176471 60) rotate(100)"><ellipse rx="11" ry="17.6" fill="#7a55c9" stroke="#1a1a24" stroke-width="2.0"/><path d="M-4.95 -8.8 q3.3 -4.928000000000001 7.699999999999999 -3.168" stroke="#fff" stroke-opacity=".6" stroke-width="1.8" stroke-linecap="round" fill="none"/></g><g transform="translate(758.2352941176471 1140) rotate(100)"><ellipse rx="11" ry="17.6" fill="#7a55c9" stroke="#1a1a24" stroke-width="2.0"/><path d="M-4.95 -8.8 q3.3 -4.928000000000001 7.699999999999999 -3.168" stroke="#fff" stroke-opacity=".6" stroke-width="1.8" stroke-linecap="round" fill="none"/></g><g transform="translate(800.0 60) rotate(140)"><ellipse rx="11" ry="17.6" fill="#b7a2e8" stroke="#1a1a24" stroke-width="2.0"/><path d="M-4.95 -8.8 q3.3 -4.928000000000001 7.699999999999999 -3.168" stroke="#fff" stroke-opacity=".6" stroke-width="1.8" stroke-linecap="round" fill="none"/></g><g transform="translate(800.0 1140) rotate(140)"><ellipse rx="11" ry="17.6" fill="#b7a2e8" stroke="#1a1a24" stroke-width="2.0"/><path d="M-4.95 -8.8 q3.3 -4.928000000000001 7.699999999999999 -3.168" stroke="#fff" stroke-opacity=".6" stroke-width="1.8" stroke-linecap="round" fill="none"/></g><g transform="translate(841.7647058823529 60) rotate(0)"><ellipse rx="11" ry="17.6" fill="#d94a3a" stroke="#1a1a24" stroke-width="2.0"/><path d="M-4.95 -8.8 q3.3 -4.928000000000001 7.699999999999999 -3.168" stroke="#fff" stroke-opacity=".6" stroke-width="1.8" stroke-linecap="round" fill="none"/></g><g transform="translate(841.7647058823529 1140) rotate(0)"><ellipse rx="11" ry="17.6" fill="#d94a3a" stroke="#1a1a24" stroke-width="2.0"/><path d="M-4.95 -8.8 q3.3 -4.928000000000001 7.699999999999999 -3.168" stroke="#fff" stroke-opacity=".6" stroke-width="1.8" stroke-linecap="round" fill="none"/></g><g transform="translate(883.5294117647059 60) rotate(40)"><ellipse rx="11" ry="17.6" fill="#3a2f86" stroke="#1a1a24" stroke-width="2.0"/><path d="M-4.95 -8.8 q3.3 -4.928000000000001 7.699999999999999 -3.168" stroke="#fff" stroke-opacity=".6" stroke-width="1.8" stroke-linecap="round" fill="none"/></g><g transform="translate(883.5294117647059 1140) rotate(40)"><ellipse rx="11" ry="17.6" fill="#3a2f86" stroke="#1a1a24" stroke-width="2.0"/><path d="M-4.95 -8.8 q3.3 -4.928000000000001 7.699999999999999 -3.168" stroke="#fff" stroke-opacity=".6" stroke-width="1.8" stroke-linecap="round" fill="none"/></g><g transform="translate(925.2941176470589 60) rotate(80)"><ellipse rx="11" ry="17.6" fill="#7a55c9" stroke="#1a1a24" stroke-width="2.0"/><path d="M-4.95 -8.8 q3.3 -4.928000000000001 7.699999999999999 -3.168" stroke="#fff" stroke-opacity=".6" stroke-width="1.8" stroke-linecap="round" fill="none"/></g><g transform="translate(925.2941176470589 1140) rotate(80)"><ellipse rx="11" ry="17.6" fill="#7a55c9" stroke="#1a1a24" stroke-width="2.0"/><path d="M-4.95 -8.8 q3.3 -4.928000000000001 7.699999999999999 -3.168" stroke="#fff" stroke-opacity=".6" stroke-width="1.8" stroke-linecap="round" fill="none"/></g><g transform="translate(967.0588235294118 60) rotate(120)"><ellipse rx="11" ry="17.6" fill="#b7a2e8" stroke="#1a1a24" stroke-width="2.0"/><path d="M-4.95 -8.8 q3.3 -4.928000000000001 7.699999999999999 -3.168" stroke="#fff" stroke-opacity=".6" stroke-width="1.8" stroke-linecap="round" fill="none"/></g><g transform="translate(967.0588235294118 1140) rotate(120)"><ellipse rx="11" ry="17.6" fill="#b7a2e8" stroke="#1a1a24" stroke-width="2.0"/><path d="M-4.95 -8.8 q3.3 -4.928000000000001 7.699999999999999 -3.168" stroke="#fff" stroke-opacity=".6" stroke-width="1.8" stroke-linecap="round" fill="none"/></g><g transform="translate(1008.8235294117648 60) rotate(160)"><ellipse rx="11" ry="17.6" fill="#d94a3a" stroke="#1a1a24" stroke-width="2.0"/><path d="M-4.95 -8.8 q3.3 -4.928000000000001 7.699999999999999 -3.168" stroke="#fff" stroke-opacity=".6" stroke-width="1.8" stroke-linecap="round" fill="none"/></g><g transform="translate(1008.8235294117648 1140) rotate(160)"><ellipse rx="11" ry="17.6" fill="#d94a3a" stroke="#1a1a24" stroke-width="2.0"/><path d="M-4.95 -8.8 q3.3 -4.928000000000001 7.699999999999999 -3.168" stroke="#fff" stroke-opacity=".6" stroke-width="1.8" stroke-linecap="round" fill="none"/></g><g transform="translate(1050.5882352941176 60) rotate(20)"><ellipse rx="11" ry="17.6" fill="#3a2f86" stroke="#1a1a24" stroke-width="2.0"/><path d="M-4.95 -8.8 q3.3 -4.928000000000001 7.699999999999999 -3.168" stroke="#fff" stroke-opacity=".6" stroke-width="1.8" stroke-linecap="round" fill="none"/></g><g transform="translate(1050.5882352941176 1140) rotate(20)"><ellipse rx="11" ry="17.6" fill="#3a2f86" stroke="#1a1a24" stroke-width="2.0"/><path d="M-4.95 -8.8 q3.3 -4.928000000000001 7.699999999999999 -3.168" stroke="#fff" stroke-opacity=".6" stroke-width="1.8" stroke-linecap="round" fill="none"/></g><g transform="translate(1092.3529411764707 60) rotate(60)"><ellipse rx="11" ry="17.6" fill="#7a55c9" stroke="#1a1a24" stroke-width="2.0"/><path d="M-4.95 -8.8 q3.3 -4.928000000000001 7.699999999999999 -3.168" stroke="#fff" stroke-opacity=".6" stroke-width="1.8" stroke-linecap="round" fill="none"/></g><g transform="translate(1092.3529411764707 1140) rotate(60)"><ellipse rx="11" ry="17.6" fill="#7a55c9" stroke="#1a1a24" stroke-width="2.0"/><path d="M-4.95 -8.8 q3.3 -4.928000000000001 7.699999999999999 -3.168" stroke="#fff" stroke-opacity=".6" stroke-width="1.8" stroke-linecap="round" fill="none"/></g><g transform="translate(1134.1176470588236 60) rotate(100)"><ellipse rx="11" ry="17.6" fill="#b7a2e8" stroke="#1a1a24" stroke-width="2.0"/><path d="M-4.95 -8.8 q3.3 -4.928000000000001 7.699999999999999 -3.168" stroke="#fff" stroke-opacity=".6" stroke-width="1.8" stroke-linecap="round" fill="none"/></g><g transform="translate(1134.1176470588236 1140) rotate(100)"><ellipse rx="11" ry="17.6" fill="#b7a2e8" stroke="#1a1a24" stroke-width="2.0"/><path d="M-4.95 -8.8 q3.3 -4.928000000000001 7.699999999999999 -3.168" stroke="#fff" stroke-opacity=".6" stroke-width="1.8" stroke-linecap="round" fill="none"/></g><g transform="translate(1175.8823529411764 60) rotate(140)"><ellipse rx="11" ry="17.6" fill="#d94a3a" stroke="#1a1a24" stroke-width="2.0"/><path d="M-4.95 -8.8 q3.3 -4.928000000000001 7.699999999999999 -3.168" stroke="#fff" stroke-opacity=".6" stroke-width="1.8" stroke-linecap="round" fill="none"/></g><g transform="translate(1175.8823529411764 1140) rotate(140)"><ellipse rx="11" ry="17.6" fill="#d94a3a" stroke="#1a1a24" stroke-width="2.0"/><path d="M-4.95 -8.8 q3.3 -4.928000000000001 7.699999999999999 -3.168" stroke="#fff" stroke-opacity=".6" stroke-width="1.8" stroke-linecap="round" fill="none"/></g><g transform="translate(1217.6470588235293 60) rotate(0)"><ellipse rx="11" ry="17.6" fill="#3a2f86" stroke="#1a1a24" stroke-width="2.0"/><path d="M-4.95 -8.8 q3.3 -4.928000000000001 7.699999999999999 -3.168" stroke="#fff" stroke-opacity=".6" stroke-width="1.8" stroke-linecap="round" fill="none"/></g><g transform="translate(1217.6470588235293 1140) rotate(0)"><ellipse rx="11" ry="17.6" fill="#3a2f86" stroke="#1a1a24" stroke-width="2.0"/><path d="M-4.95 -8.8 q3.3 -4.928000000000001 7.699999999999999 -3.168" stroke="#fff" stroke-opacity=".6" stroke-width="1.8" stroke-linecap="round" fill="none"/></g><g transform="translate(1259.4117647058822 60) rotate(40)"><ellipse rx="11" ry="17.6" fill="#7a55c9" stroke="#1a1a24" stroke-width="2.0"/><path d="M-4.95 -8.8 q3.3 -4.928000000000001 7.699999999999999 -3.168" stroke="#fff" stroke-opacity=".6" stroke-width="1.8" stroke-linecap="round" fill="none"/></g><g transform="translate(1259.4117647058822 1140) rotate(40)"><ellipse rx="11" ry="17.6" fill="#7a55c9" stroke="#1a1a24" stroke-width="2.0"/><path d="M-4.95 -8.8 q3.3 -4.928000000000001 7.699999999999999 -3.168" stroke="#fff" stroke-opacity=".6" stroke-width="1.8" stroke-linecap="round" fill="none"/></g><g transform="translate(1301.1764705882354 60) rotate(80)"><ellipse rx="11" ry="17.6" fill="#b7a2e8" stroke="#1a1a24" stroke-width="2.0"/><path d="M-4.95 -8.8 q3.3 -4.928000000000001 7.699999999999999 -3.168" stroke="#fff" stroke-opacity=".6" stroke-width="1.8" stroke-linecap="round" fill="none"/></g><g transform="translate(1301.1764705882354 1140) rotate(80)"><ellipse rx="11" ry="17.6" fill="#b7a2e8" stroke="#1a1a24" stroke-width="2.0"/><path d="M-4.95 -8.8 q3.3 -4.928000000000001 7.699999999999999 -3.168" stroke="#fff" stroke-opacity=".6" stroke-width="1.8" stroke-linecap="round" fill="none"/></g><g transform="translate(1342.9411764705883 60) rotate(120)"><ellipse rx="11" ry="17.6" fill="#d94a3a" stroke="#1a1a24" stroke-width="2.0"/><path d="M-4.95 -8.8 q3.3 -4.928000000000001 7.699999999999999 -3.168" stroke="#fff" stroke-opacity=".6" stroke-width="1.8" stroke-linecap="round" fill="none"/></g><g transform="translate(1342.9411764705883 1140) rotate(120)"><ellipse rx="11" ry="17.6" fill="#d94a3a" stroke="#1a1a24" stroke-width="2.0"/><path d="M-4.95 -8.8 q3.3 -4.928000000000001 7.699999999999999 -3.168" stroke="#fff" stroke-opacity=".6" stroke-width="1.8" stroke-linecap="round" fill="none"/></g><g transform="translate(1384.7058823529412 60) rotate(160)"><ellipse rx="11" ry="17.6" fill="#3a2f86" stroke="#1a1a24" stroke-width="2.0"/><path d="M-4.95 -8.8 q3.3 -4.928000000000001 7.699999999999999 -3.168" stroke="#fff" stroke-opacity=".6" stroke-width="1.8" stroke-linecap="round" fill="none"/></g><g transform="translate(1384.7058823529412 1140) rotate(160)"><ellipse rx="11" ry="17.6" fill="#3a2f86" stroke="#1a1a24" stroke-width="2.0"/><path d="M-4.95 -8.8 q3.3 -4.928000000000001 7.699999999999999 -3.168" stroke="#fff" stroke-opacity=".6" stroke-width="1.8" stroke-linecap="round" fill="none"/></g><g transform="translate(1426.4705882352941 60) rotate(20)"><ellipse rx="11" ry="17.6" fill="#7a55c9" stroke="#1a1a24" stroke-width="2.0"/><path d="M-4.95 -8.8 q3.3 -4.928000000000001 7.699999999999999 -3.168" stroke="#fff" stroke-opacity=".6" stroke-width="1.8" stroke-linecap="round" fill="none"/></g><g transform="translate(1426.4705882352941 1140) rotate(20)"><ellipse rx="11" ry="17.6" fill="#7a55c9" stroke="#1a1a24" stroke-width="2.0"/><path d="M-4.95 -8.8 q3.3 -4.928000000000001 7.699999999999999 -3.168" stroke="#fff" stroke-opacity=".6" stroke-width="1.8" stroke-linecap="round" fill="none"/></g><g transform="translate(1468.235294117647 60) rotate(60)"><ellipse rx="11" ry="17.6" fill="#b7a2e8" stroke="#1a1a24" stroke-width="2.0"/><path d="M-4.95 -8.8 q3.3 -4.928000000000001 7.699999999999999 -3.168" stroke="#fff" stroke-opacity=".6" stroke-width="1.8" stroke-linecap="round" fill="none"/></g><g transform="translate(1468.235294117647 1140) rotate(60)"><ellipse rx="11" ry="17.6" fill="#b7a2e8" stroke="#1a1a24" stroke-width="2.0"/><path d="M-4.95 -8.8 q3.3 -4.928000000000001 7.699999999999999 -3.168" stroke="#fff" stroke-opacity=".6" stroke-width="1.8" stroke-linecap="round" fill="none"/></g><g transform="translate(60 140.0) rotate(90)"><ellipse rx="11" ry="17.6" fill="#b7a2e8" stroke="#1a1a24" stroke-width="2.0"/><path d="M-4.95 -8.8 q3.3 -4.928000000000001 7.699999999999999 -3.168" stroke="#fff" stroke-opacity=".6" stroke-width="1.8" stroke-linecap="round" fill="none"/></g><g transform="translate(1540 140.0) rotate(90)"><ellipse rx="11" ry="17.6" fill="#b7a2e8" stroke="#1a1a24" stroke-width="2.0"/><path d="M-4.95 -8.8 q3.3 -4.928000000000001 7.699999999999999 -3.168" stroke="#fff" stroke-opacity=".6" stroke-width="1.8" stroke-linecap="round" fill="none"/></g><g transform="translate(60 178.33333333333331) rotate(120)"><ellipse rx="11" ry="17.6" fill="#7a55c9" stroke="#1a1a24" stroke-width="2.0"/><path d="M-4.95 -8.8 q3.3 -4.928000000000001 7.699999999999999 -3.168" stroke="#fff" stroke-opacity=".6" stroke-width="1.8" stroke-linecap="round" fill="none"/></g><g transform="translate(1540 178.33333333333331) rotate(120)"><ellipse rx="11" ry="17.6" fill="#7a55c9" stroke="#1a1a24" stroke-width="2.0"/><path d="M-4.95 -8.8 q3.3 -4.928000000000001 7.699999999999999 -3.168" stroke="#fff" stroke-opacity=".6" stroke-width="1.8" stroke-linecap="round" fill="none"/></g><g transform="translate(60 216.66666666666666) rotate(90)"><ellipse rx="11" ry="17.6" fill="#3a2f86" stroke="#1a1a24" stroke-width="2.0"/><path d="M-4.95 -8.8 q3.3 -4.928000000000001 7.699999999999999 -3.168" stroke="#fff" stroke-opacity=".6" stroke-width="1.8" stroke-linecap="round" fill="none"/></g><g transform="translate(1540 216.66666666666666) rotate(90)"><ellipse rx="11" ry="17.6" fill="#3a2f86" stroke="#1a1a24" stroke-width="2.0"/><path d="M-4.95 -8.8 q3.3 -4.928000000000001 7.699999999999999 -3.168" stroke="#fff" stroke-opacity=".6" stroke-width="1.8" stroke-linecap="round" fill="none"/></g><g transform="translate(60 255.0) rotate(120)"><ellipse rx="11" ry="17.6" fill="#d94a3a" stroke="#1a1a24" stroke-width="2.0"/><path d="M-4.95 -8.8 q3.3 -4.928000000000001 7.699999999999999 -3.168" stroke="#fff" stroke-opacity=".6" stroke-width="1.8" stroke-linecap="round" fill="none"/></g><g transform="translate(1540 255.0) rotate(120)"><ellipse rx="11" ry="17.6" fill="#d94a3a" stroke="#1a1a24" stroke-width="2.0"/><path d="M-4.95 -8.8 q3.3 -4.928000000000001 7.699999999999999 -3.168" stroke="#fff" stroke-opacity=".6" stroke-width="1.8" stroke-linecap="round" fill="none"/></g><g transform="translate(60 293.3333333333333) rotate(90)"><ellipse rx="11" ry="17.6" fill="#b7a2e8" stroke="#1a1a24" stroke-width="2.0"/><path d="M-4.95 -8.8 q3.3 -4.928000000000001 7.699999999999999 -3.168" stroke="#fff" stroke-opacity=".6" stroke-width="1.8" stroke-linecap="round" fill="none"/></g><g transform="translate(1540 293.3333333333333) rotate(90)"><ellipse rx="11" ry="17.6" fill="#b7a2e8" stroke="#1a1a24" stroke-width="2.0"/><path d="M-4.95 -8.8 q3.3 -4.928000000000001 7.699999999999999 -3.168" stroke="#fff" stroke-opacity=".6" stroke-width="1.8" stroke-linecap="round" fill="none"/></g><g transform="translate(60 331.6666666666667) rotate(120)"><ellipse rx="11" ry="17.6" fill="#7a55c9" stroke="#1a1a24" stroke-width="2.0"/><path d="M-4.95 -8.8 q3.3 -4.928000000000001 7.699999999999999 -3.168" stroke="#fff" stroke-opacity=".6" stroke-width="1.8" stroke-linecap="round" fill="none"/></g><g transform="translate(1540 331.6666666666667) rotate(120)"><ellipse rx="11" ry="17.6" fill="#7a55c9" stroke="#1a1a24" stroke-width="2.0"/><path d="M-4.95 -8.8 q3.3 -4.928000000000001 7.699999999999999 -3.168" stroke="#fff" stroke-opacity=".6" stroke-width="1.8" stroke-linecap="round" fill="none"/></g><g transform="translate(60 370.0) rotate(90)"><ellipse rx="11" ry="17.6" fill="#3a2f86" stroke="#1a1a24" stroke-width="2.0"/><path d="M-4.95 -8.8 q3.3 -4.928000000000001 7.699999999999999 -3.168" stroke="#fff" stroke-opacity=".6" stroke-width="1.8" stroke-linecap="round" fill="none"/></g><g transform="translate(1540 370.0) rotate(90)"><ellipse rx="11" ry="17.6" fill="#3a2f86" stroke="#1a1a24" stroke-width="2.0"/><path d="M-4.95 -8.8 q3.3 -4.928000000000001 7.699999999999999 -3.168" stroke="#fff" stroke-opacity=".6" stroke-width="1.8" stroke-linecap="round" fill="none"/></g><g transform="translate(60 408.33333333333337) rotate(120)"><ellipse rx="11" ry="17.6" fill="#d94a3a" stroke="#1a1a24" stroke-width="2.0"/><path d="M-4.95 -8.8 q3.3 -4.928000000000001 7.699999999999999 -3.168" stroke="#fff" stroke-opacity=".6" stroke-width="1.8" stroke-linecap="round" fill="none"/></g><g transform="translate(1540 408.33333333333337) rotate(120)"><ellipse rx="11" ry="17.6" fill="#d94a3a" stroke="#1a1a24" stroke-width="2.0"/><path d="M-4.95 -8.8 q3.3 -4.928000000000001 7.699999999999999 -3.168" stroke="#fff" stroke-opacity=".6" stroke-width="1.8" stroke-linecap="round" fill="none"/></g><g transform="translate(60 446.66666666666663) rotate(90)"><ellipse rx="11" ry="17.6" fill="#b7a2e8" stroke="#1a1a24" stroke-width="2.0"/><path d="M-4.95 -8.8 q3.3 -4.928000000000001 7.699999999999999 -3.168" stroke="#fff" stroke-opacity=".6" stroke-width="1.8" stroke-linecap="round" fill="none"/></g><g transform="translate(1540 446.66666666666663) rotate(90)"><ellipse rx="11" ry="17.6" fill="#b7a2e8" stroke="#1a1a24" stroke-width="2.0"/><path d="M-4.95 -8.8 q3.3 -4.928000000000001 7.699999999999999 -3.168" stroke="#fff" stroke-opacity=".6" stroke-width="1.8" stroke-linecap="round" fill="none"/></g><g transform="translate(60 485.0) rotate(120)"><ellipse rx="11" ry="17.6" fill="#7a55c9" stroke="#1a1a24" stroke-width="2.0"/><path d="M-4.95 -8.8 q3.3 -4.928000000000001 7.699999999999999 -3.168" stroke="#fff" stroke-opacity=".6" stroke-width="1.8" stroke-linecap="round" fill="none"/></g><g transform="translate(1540 485.0) rotate(120)"><ellipse rx="11" ry="17.6" fill="#7a55c9" stroke="#1a1a24" stroke-width="2.0"/><path d="M-4.95 -8.8 q3.3 -4.928000000000001 7.699999999999999 -3.168" stroke="#fff" stroke-opacity=".6" stroke-width="1.8" stroke-linecap="round" fill="none"/></g><g transform="translate(60 523.3333333333334) rotate(90)"><ellipse rx="11" ry="17.6" fill="#3a2f86" stroke="#1a1a24" stroke-width="2.0"/><path d="M-4.95 -8.8 q3.3 -4.928000000000001 7.699999999999999 -3.168" stroke="#fff" stroke-opacity=".6" stroke-width="1.8" stroke-linecap="round" fill="none"/></g><g transform="translate(1540 523.3333333333334) rotate(90)"><ellipse rx="11" ry="17.6" fill="#3a2f86" stroke="#1a1a24" stroke-width="2.0"/><path d="M-4.95 -8.8 q3.3 -4.928000000000001 7.699999999999999 -3.168" stroke="#fff" stroke-opacity=".6" stroke-width="1.8" stroke-linecap="round" fill="none"/></g><g transform="translate(60 561.6666666666666) rotate(120)"><ellipse rx="11" ry="17.6" fill="#d94a3a" stroke="#1a1a24" stroke-width="2.0"/><path d="M-4.95 -8.8 q3.3 -4.928000000000001 7.699999999999999 -3.168" stroke="#fff" stroke-opacity=".6" stroke-width="1.8" stroke-linecap="round" fill="none"/></g><g transform="translate(1540 561.6666666666666) rotate(120)"><ellipse rx="11" ry="17.6" fill="#d94a3a" stroke="#1a1a24" stroke-width="2.0"/><path d="M-4.95 -8.8 q3.3 -4.928000000000001 7.699999999999999 -3.168" stroke="#fff" stroke-opacity=".6" stroke-width="1.8" stroke-linecap="round" fill="none"/></g><g transform="translate(60 600.0) rotate(90)"><ellipse rx="11" ry="17.6" fill="#b7a2e8" stroke="#1a1a24" stroke-width="2.0"/><path d="M-4.95 -8.8 q3.3 -4.928000000000001 7.699999999999999 -3.168" stroke="#fff" stroke-opacity=".6" stroke-width="1.8" stroke-linecap="round" fill="none"/></g><g transform="translate(1540 600.0) rotate(90)"><ellipse rx="11" ry="17.6" fill="#b7a2e8" stroke="#1a1a24" stroke-width="2.0"/><path d="M-4.95 -8.8 q3.3 -4.928000000000001 7.699999999999999 -3.168" stroke="#fff" stroke-opacity=".6" stroke-width="1.8" stroke-linecap="round" fill="none"/></g><g transform="translate(60 638.3333333333333) rotate(120)"><ellipse rx="11" ry="17.6" fill="#7a55c9" stroke="#1a1a24" stroke-width="2.0"/><path d="M-4.95 -8.8 q3.3 -4.928000000000001 7.699999999999999 -3.168" stroke="#fff" stroke-opacity=".6" stroke-width="1.8" stroke-linecap="round" fill="none"/></g><g transform="translate(1540 638.3333333333333) rotate(120)"><ellipse rx="11" ry="17.6" fill="#7a55c9" stroke="#1a1a24" stroke-width="2.0"/><path d="M-4.95 -8.8 q3.3 -4.928000000000001 7.699999999999999 -3.168" stroke="#fff" stroke-opacity=".6" stroke-width="1.8" stroke-linecap="round" fill="none"/></g><g transform="translate(60 676.6666666666667) rotate(90)"><ellipse rx="11" ry="17.6" fill="#3a2f86" stroke="#1a1a24" stroke-width="2.0"/><path d="M-4.95 -8.8 q3.3 -4.928000000000001 7.699999999999999 -3.168" stroke="#fff" stroke-opacity=".6" stroke-width="1.8" stroke-linecap="round" fill="none"/></g><g transform="translate(1540 676.6666666666667) rotate(90)"><ellipse rx="11" ry="17.6" fill="#3a2f86" stroke="#1a1a24" stroke-width="2.0"/><path d="M-4.95 -8.8 q3.3 -4.928000000000001 7.699999999999999 -3.168" stroke="#fff" stroke-opacity=".6" stroke-width="1.8" stroke-linecap="round" fill="none"/></g><g transform="translate(60 715.0) rotate(120)"><ellipse rx="11" ry="17.6" fill="#d94a3a" stroke="#1a1a24" stroke-width="2.0"/><path d="M-4.95 -8.8 q3.3 -4.928000000000001 7.699999999999999 -3.168" stroke="#fff" stroke-opacity=".6" stroke-width="1.8" stroke-linecap="round" fill="none"/></g><g transform="translate(1540 715.0) rotate(120)"><ellipse rx="11" ry="17.6" fill="#d94a3a" stroke="#1a1a24" stroke-width="2.0"/><path d="M-4.95 -8.8 q3.3 -4.928000000000001 7.699999999999999 -3.168" stroke="#fff" stroke-opacity=".6" stroke-width="1.8" stroke-linecap="round" fill="none"/></g><g transform="translate(60 753.3333333333333) rotate(90)"><ellipse rx="11" ry="17.6" fill="#b7a2e8" stroke="#1a1a24" stroke-width="2.0"/><path d="M-4.95 -8.8 q3.3 -4.928000000000001 7.699999999999999 -3.168" stroke="#fff" stroke-opacity=".6" stroke-width="1.8" stroke-linecap="round" fill="none"/></g><g transform="translate(1540 753.3333333333333) rotate(90)"><ellipse rx="11" ry="17.6" fill="#b7a2e8" stroke="#1a1a24" stroke-width="2.0"/><path d="M-4.95 -8.8 q3.3 -4.928000000000001 7.699999999999999 -3.168" stroke="#fff" stroke-opacity=".6" stroke-width="1.8" stroke-linecap="round" fill="none"/></g><g transform="translate(60 791.6666666666667) rotate(120)"><ellipse rx="11" ry="17.6" fill="#7a55c9" stroke="#1a1a24" stroke-width="2.0"/><path d="M-4.95 -8.8 q3.3 -4.928000000000001 7.699999999999999 -3.168" stroke="#fff" stroke-opacity=".6" stroke-width="1.8" stroke-linecap="round" fill="none"/></g><g transform="translate(1540 791.6666666666667) rotate(120)"><ellipse rx="11" ry="17.6" fill="#7a55c9" stroke="#1a1a24" stroke-width="2.0"/><path d="M-4.95 -8.8 q3.3 -4.928000000000001 7.699999999999999 -3.168" stroke="#fff" stroke-opacity=".6" stroke-width="1.8" stroke-linecap="round" fill="none"/></g><g transform="translate(60 830.0) rotate(90)"><ellipse rx="11" ry="17.6" fill="#3a2f86" stroke="#1a1a24" stroke-width="2.0"/><path d="M-4.95 -8.8 q3.3 -4.928000000000001 7.699999999999999 -3.168" stroke="#fff" stroke-opacity=".6" stroke-width="1.8" stroke-linecap="round" fill="none"/></g><g transform="translate(1540 830.0) rotate(90)"><ellipse rx="11" ry="17.6" fill="#3a2f86" stroke="#1a1a24" stroke-width="2.0"/><path d="M-4.95 -8.8 q3.3 -4.928000000000001 7.699999999999999 -3.168" stroke="#fff" stroke-opacity=".6" stroke-width="1.8" stroke-linecap="round" fill="none"/></g><g transform="translate(60 868.3333333333333) rotate(120)"><ellipse rx="11" ry="17.6" fill="#d94a3a" stroke="#1a1a24" stroke-width="2.0"/><path d="M-4.95 -8.8 q3.3 -4.928000000000001 7.699999999999999 -3.168" stroke="#fff" stroke-opacity=".6" stroke-width="1.8" stroke-linecap="round" fill="none"/></g><g transform="translate(1540 868.3333333333333) rotate(120)"><ellipse rx="11" ry="17.6" fill="#d94a3a" stroke="#1a1a24" stroke-width="2.0"/><path d="M-4.95 -8.8 q3.3 -4.928000000000001 7.699999999999999 -3.168" stroke="#fff" stroke-opacity=".6" stroke-width="1.8" stroke-linecap="round" fill="none"/></g><g transform="translate(60 906.6666666666667) rotate(90)"><ellipse rx="11" ry="17.6" fill="#b7a2e8" stroke="#1a1a24" stroke-width="2.0"/><path d="M-4.95 -8.8 q3.3 -4.928000000000001 7.699999999999999 -3.168" stroke="#fff" stroke-opacity=".6" stroke-width="1.8" stroke-linecap="round" fill="none"/></g><g transform="translate(1540 906.6666666666667) rotate(90)"><ellipse rx="11" ry="17.6" fill="#b7a2e8" stroke="#1a1a24" stroke-width="2.0"/><path d="M-4.95 -8.8 q3.3 -4.928000000000001 7.699999999999999 -3.168" stroke="#fff" stroke-opacity=".6" stroke-width="1.8" stroke-linecap="round" fill="none"/></g><g transform="translate(60 945.0) rotate(120)"><ellipse rx="11" ry="17.6" fill="#7a55c9" stroke="#1a1a24" stroke-width="2.0"/><path d="M-4.95 -8.8 q3.3 -4.928000000000001 7.699999999999999 -3.168" stroke="#fff" stroke-opacity=".6" stroke-width="1.8" stroke-linecap="round" fill="none"/></g><g transform="translate(1540 945.0) rotate(120)"><ellipse rx="11" ry="17.6" fill="#7a55c9" stroke="#1a1a24" stroke-width="2.0"/><path d="M-4.95 -8.8 q3.3 -4.928000000000001 7.699999999999999 -3.168" stroke="#fff" stroke-opacity=".6" stroke-width="1.8" stroke-linecap="round" fill="none"/></g><g transform="translate(60 983.3333333333333) rotate(90)"><ellipse rx="11" ry="17.6" fill="#3a2f86" stroke="#1a1a24" stroke-width="2.0"/><path d="M-4.95 -8.8 q3.3 -4.928000000000001 7.699999999999999 -3.168" stroke="#fff" stroke-opacity=".6" stroke-width="1.8" stroke-linecap="round" fill="none"/></g><g transform="translate(1540 983.3333333333333) rotate(90)"><ellipse rx="11" ry="17.6" fill="#3a2f86" stroke="#1a1a24" stroke-width="2.0"/><path d="M-4.95 -8.8 q3.3 -4.928000000000001 7.699999999999999 -3.168" stroke="#fff" stroke-opacity=".6" stroke-width="1.8" stroke-linecap="round" fill="none"/></g><g transform="translate(60 1021.6666666666667) rotate(120)"><ellipse rx="11" ry="17.6" fill="#d94a3a" stroke="#1a1a24" stroke-width="2.0"/><path d="M-4.95 -8.8 q3.3 -4.928000000000001 7.699999999999999 -3.168" stroke="#fff" stroke-opacity=".6" stroke-width="1.8" stroke-linecap="round" fill="none"/></g><g transform="translate(1540 1021.6666666666667) rotate(120)"><ellipse rx="11" ry="17.6" fill="#d94a3a" stroke="#1a1a24" stroke-width="2.0"/><path d="M-4.95 -8.8 q3.3 -4.928000000000001 7.699999999999999 -3.168" stroke="#fff" stroke-opacity=".6" stroke-width="1.8" stroke-linecap="round" fill="none"/></g><polygon points="110.0,76.0 118.4,98.4 142.3,99.5 123.6,114.4 130.0,137.5 110.0,124.3 90.0,137.5 96.4,114.4 77.7,99.5 101.6,98.4" fill="#f7c948" opacity="1"/><path d="M140 126 Q140 140 154 140 Q140 140 140 154 Q140 140 126 140 Q140 140 140 126Z" fill="#fff" opacity="0.9"/><polygon points="1490.0,76.0 1498.4,98.4 1522.3,99.5 1503.6,114.4 1510.0,137.5 1490.0,124.3 1470.0,137.5 1476.4,114.4 1457.7,99.5 1481.6,98.4" fill="#f7c948" opacity="1"/><path d="M1460 126 Q1460 140 1474 140 Q1460 140 1460 154 Q1460 140 1446 140 Q1460 140 1460 126Z" fill="#fff" opacity="0.9"/><polygon points="110.0,1056.0 118.4,1078.4 142.3,1079.5 123.6,1094.4 130.0,1117.5 110.0,1104.3 90.0,1117.5 96.4,1094.4 77.7,1079.5 101.6,1078.4" fill="#f7c948" opacity="1"/><path d="M140 1046 Q140 1060 154 1060 Q140 1060 140 1074 Q140 1060 126 1060 Q140 1060 140 1046Z" fill="#fff" opacity="0.9"/><polygon points="1490.0,1056.0 1498.4,1078.4 1522.3,1079.5 1503.6,1094.4 1510.0,1117.5 1490.0,1104.3 1470.0,1117.5 1476.4,1094.4 1457.7,1079.5 1481.6,1078.4" fill="#f7c948" opacity="1"/><path d="M1460 1046 Q1460 1060 1474 1060 Q1460 1060 1460 1074 Q1460 1060 1446 1060 Q1460 1060 1460 1046Z" fill="#fff" opacity="0.9"/><path d="M560 40 H1040 L1000 100 L1040 160 H560 L600 100Z" fill="#d94a3a" stroke="#1a1a24" stroke-width="8" stroke-linejoin="round"/><g transform="translate(800 1000) rotate(0) scale(0.42)"><path d="M0 -6 L0 120" stroke="#1a1a24" stroke-width="7" stroke-linecap="round"/><path d="M0 120 q0 22 -22 22" stroke="#1a1a24" stroke-width="7" stroke-linecap="round" fill="none"/><path d="M0 -60 Q-110.5 -50 -130.0 0 Q-104.0 -14 -78.0 0 Q-66.3 -50 0 -60Z" fill="#d94a3a" stroke="#1a1a24" stroke-width="4" stroke-linejoin="round"/><path d="M0 -60 Q-66.3 -50 -78.0 0 Q-52.0 -14 -26.0 0 Q-22.1 -50 0 -60Z" fill="#f7c948" stroke="#1a1a24" stroke-width="4" stroke-linejoin="round"/><path d="M0 -60 Q-22.1 -50 -26.0 0 Q0.0 -14 26.0 0 Q22.1 -50 0 -60Z" fill="#d94a3a" stroke="#1a1a24" stroke-width="4" stroke-linejoin="round"/><path d="M0 -60 Q22.1 -50 26.0 0 Q52.0 -14 78.0 0 Q66.3 -50 0 -60Z" fill="#f7c948" stroke="#1a1a24" stroke-width="4" stroke-linejoin="round"/><path d="M0 -60 Q66.3 -50 78.0 0 Q104.0 -14 130.0 0 Q110.5 -50 0 -60Z" fill="#d94a3a" stroke="#1a1a24" stroke-width="4" stroke-linejoin="round"/><circle cx="0" cy="-62" r="6" fill="#1a1a24"/></g><g transform="translate(400 1080) rotate(-10) scale(0.9)" fill="#b7a2e8" opacity="1"><ellipse cx="0" cy="8" rx="14" ry="11"/><ellipse cx="-16" cy="-8" rx="6" ry="8" transform="rotate(-20 -16 -8)"/><ellipse cx="-6" cy="-18" rx="6" ry="8" transform="rotate(-6 -6 -18)"/><ellipse cx="7" cy="-18" rx="6" ry="8" transform="rotate(6 7 -18)"/><ellipse cx="17" cy="-8" rx="6" ry="8" transform="rotate(20 17 -8)"/></g><g transform="translate(1200 1080) rotate(10) scale(0.9)" fill="#b7a2e8" opacity="1"><ellipse cx="0" cy="8" rx="14" ry="11"/><ellipse cx="-16" cy="-8" rx="6" ry="8" transform="rotate(-20 -16 -8)"/><ellipse cx="-6" cy="-18" rx="6" ry="8" transform="rotate(-6 -6 -18)"/><ellipse cx="7" cy="-18" rx="6" ry="8" transform="rotate(6 7 -18)"/><ellipse cx="17" cy="-8" rx="6" ry="8" transform="rotate(20 17 -8)"/></g></svg>