<svg xmlns="http://www.w3.org/2000/svg" viewBox="0 0 512 512" width="512" height="512"><defs></defs><circle cx="256" cy="256" r="230" fill="#dcd3f3" opacity=".55"/><rect x="70" y="110" width="170" height="140" fill="#fff" stroke="#1a1a24" stroke-width="10" rx="8"/><rect x="262" y="110" width="180" height="140" fill="#fff" stroke="#1a1a24" stroke-width="10" rx="8"/><rect x="70" y="270" width="372" height="130" fill="#fff" stroke="#1a1a24" stroke-width="10" rx="8"/><g transform="translate(155 180) rotate(20)"><ellipse rx="20" ry="32.0" fill="#7a55c9" stroke="#1a1a24" stroke-width="2.0"/><path d="M-9.0 -16.0 q6.0 -8.96 14.0 -5.76" stroke="#fff" stroke-opacity=".6" stroke-width="3.2" stroke-linecap="round" fill="none"/></g><polygon points="352.0,148.0 359.9,169.1 382.4,170.1 364.8,184.2 370.8,205.9 352.0,193.4 333.2,205.9 339.2,184.2 321.6,170.1 344.1,169.1" fill="#f7c948" opacity="1"/><g transform="translate(256 335) rotate(0) scale(0.9)" fill="#1a1a24" opacity="1"><ellipse cx="0" cy="8" rx="14" ry="11"/><ellipse cx="-16" cy="-8" rx="6" ry="8" transform="rotate(-20 -16 -8)"/><ellipse cx="-6" cy="-18" rx="6" ry="8" transform="rotate(-6 -6 -18)"/><ellipse cx="7" cy="-18" rx="6" ry="8" transform="rotate(6 7 -18)"/><ellipse cx="17" cy="-8" rx="6" ry="8" transform="rotate(20 17 -8)"/></g></svg>