<svg xmlns="http://www.w3.org/2000/svg" viewBox="0 0 1600 600" width="1600" height="600"><defs><linearGradient id="w4" x1="0" y1="0" x2="0" y2="1"><stop offset="0" stop-color="#1b1740"/><stop offset="1" stop-color="#4a3a9a"/></linearGradient></defs><rect width="1600" height="600" fill="url(#w4)"/><path d="M724.7596945455134 178.62565539780104 Q724.7596945455134 188.24670831791968 734.3807474656321 188.24670831791968 Q724.7596945455134 188.24670831791968 724.7596945455134 197.86776123803833 Q724.7596945455134 188.24670831791968 715.1386416253947 188.24670831791968 Q724.7596945455134 188.24670831791968 724.7596945455134 178.62565539780104Z" fill="#fff" opacity="0.7328250350498866"/><circle cx="812" cy="197" r="1.5" fill="#fff" opacity="0.68"/><circle cx="1005" cy="263" r="1.4" fill="#fff" opacity="0.57"/><circle cx="153" cy="269" r="2.3" fill="#fff" opacity="0.42"/><circle cx="1562" cy="319" r="2.2" fill="#fff" opacity="0.74"/><path d="M258.8406703214566 5.188330966920387 Q258.8406703214566 12.830237297772781 266.48257665230904 12.830237297772781 Q258.8406703214566 12.830237297772781 258.8406703214566 20.472143628625176 Q258.8406703214566 12.830237297772781 251.19876399060422 12.830237297772781 Q258.8406703214566 12.830237297772781 258.8406703214566 5.188330966920387Z" fill="#fff" opacity="0.5297755525844274"/><circle cx="311" cy="86" r="1.2" fill="#fff" opacity="0.66"/><circle cx="706" cy="279" r="2.0" fill="#fff" opacity="0.75"/><circle cx="800" cy="221" r="1.9" fill="#fff" opacity="0.55"/><circle cx="1586" cy="329" r="2.5" fill="#fff" opacity="0.79"/><path d="M508.13800288456883 75.50722058117458 Q508.13800288456883 81.95242031774559 514.5832026211399 81.95242031774559 Q508.13800288456883 81.95242031774559 508.13800288456883 88.3976200543166 Q508.13800288456883 81.95242031774559 501.69280314799784 81.95242031774559 Q508.13800288456883 81.95242031774559 508.13800288456883 75.50722058117458Z" fill="#fff" opacity="0.5351117497799629"/><circle cx="1221" cy="137" r="2.6" fill="#fff" opacity="0.61"/><circle cx="1524" cy="281" r="1.2" fill="#fff" opacity="0.52"/><circle cx="1448" cy="159" r="2.8" fill="#fff" opacity="0.62"/><circle cx="125" cy="211" r="2.4" fill="#fff" opacity="0.55"/><path d="M147.6878333964288 105.2721903162292 Q147.6878333964288 115.09257139919802 157.50821447939762 115.09257139919802 Q147.6878333964288 115.09257139919802 147.6878333964288 124.91295248216684 Q147.6878333964288 115.09257139919802 137.86745231345998 115.09257139919802 Q147.6878333964288 115.09257139919802 147.6878333964288 105.2721903162292Z" fill="#fff" opacity="0.8790202584968794"/><circle cx="196" cy="87" r="1.4" fill="#fff" opacity="0.43"/><circle cx="1269" cy="65" r="2.1" fill="#fff" opacity="0.65"/><circle cx="311" cy="244" r="1.4" fill="#fff" opacity="0.75"/><circle cx="194" cy="143" r="1.5" fill="#fff" opacity="0.55"/><path d="M1544.0679088255326 260.17777824307205 Q1544.0679088255326 266.698503992427 1550.5886345748877 266.698503992427 Q1544.0679088255326 266.698503992427 1544.0679088255326 273.21922974178193 Q1544.0679088255326 266.698503992427 1537.5471830761776 266.698503992427 Q1544.0679088255326 266.698503992427 1544.0679088255326 260.17777824307205Z" fill="#fff" opacity="0.9424325563744854"/><circle cx="343" cy="135" r="2.6" fill="#fff" opacity="0.75"/><circle cx="169" cy="327" r="1.5" fill="#fff" opacity="0.54"/><circle cx="1231" cy="114" r="1.7" fill="#fff" opacity="0.44"/><circle cx="152" cy="196" r="1.6" fill="#fff" opacity="0.73"/><path d="M597.2923936173006 144.1373363586428 Q597.2923936173006 153.93300972107937 607.0880669797372 153.93300972107937 Q597.2923936173006 153.93300972107937 597.2923936173006 163.72868308351593 Q597.2923936173006 153.93300972107937 587.496720254864 153.93300972107937 Q597.2923936173006 153.93300972107937 597.2923936173006 144.1373363586428Z" fill="#fff" opacity="0.7418622666312725"/><circle cx="918" cy="287" r="1.5" fill="#fff" opacity="0.48"/><circle cx="1445" cy="271" r="1.6" fill="#fff" opacity="0.50"/><circle cx="1178" cy="311" r="1.5" fill="#fff" opacity="0.92"/><circle cx="1404" cy="202" r="1.9" fill="#fff" opacity="0.46"/><path d="M71.14042527617659 311.7914107253282 Q71.14042527617659 317.9834466887081 77.3324612395565 317.9834466887081 Q71.14042527617659 317.9834466887081 71.14042527617659 324.175482652088 Q71.14042527617659 317.9834466887081 64.94838931279668 317.9834466887081 Q71.14042527617659 317.9834466887081 71.14042527617659 311.7914107253282Z" fill="#fff" opacity="0.8522897302791885"/><circle cx="416" cy="273" r="2.2" fill="#fff" opacity="0.56"/><circle cx="287" cy="240" r="1.3" fill="#fff" opacity="0.53"/><circle cx="894" cy="282" r="2.2" fill="#fff" opacity="0.55"/><circle cx="1459" cy="74" r="1.2" fill="#fff" opacity="0.55"/><path d="M714.2147215718118 21.58542657341652 Q714.2147215718118 27.466695450280607 720.0959904486758 27.466695450280607 Q714.2147215718118 27.466695450280607 714.2147215718118 33.347964327144695 Q714.2147215718118 27.466695450280607 708.3334526949477 27.466695450280607 Q714.2147215718118 27.466695450280607 714.2147215718118 21.58542657341652Z" fill="#fff" opacity="0.6843926851861313"/><circle cx="914" cy="50" r="1.8" fill="#fff" opacity="0.89"/><circle cx="1559" cy="220" r="2.3" fill="#fff" opacity="0.72"/><circle cx="232" cy="19" r="1.2" fill="#fff" opacity="0.90"/><circle cx="1118" cy="318" r="1.2" fill="#fff" opacity="0.75"/><path d="M771.9324419370852 236.6258274128979 Q771.9324419370852 243.22034986438084 778.5269643885681 243.22034986438084 Q771.9324419370852 243.22034986438084 771.9324419370852 249.81487231586377 Q771.9324419370852 243.22034986438084 765.3379194856022 243.22034986438084 Q771.9324419370852 243.22034986438084 771.9324419370852 236.6258274128979Z" fill="#fff" opacity="0.9996788131908776"/><circle cx="129" cy="184" r="2.4" fill="#fff" opacity="0.90"/><circle cx="1175" cy="235" r="2.5" fill="#fff" opacity="0.90"/><circle cx="566" cy="229" r="2.6" fill="#fff" opacity="0.88"/><circle cx="669" cy="263" r="2.6" fill="#fff" opacity="0.72"/><path d="M997.4376637218824 123.19800134772484 Q997.4376637218824 131.11139580678048 1005.351058180938 131.11139580678048 Q997.4376637218824 131.11139580678048 997.4376637218824 139.02479026583612 Q997.4376637218824 131.11139580678048 989.5242692628267 131.11139580678048 Q997.4376637218824 131.11139580678048 997.4376637218824 123.19800134772484Z" fill="#fff" opacity="0.8044334503719549"/><circle cx="137" cy="214" r="2.8" fill="#fff" opacity="0.88"/><circle cx="1161" cy="133" r="2.4" fill="#fff" opacity="0.72"/><circle cx="706" cy="278" r="1.3" fill="#fff" opacity="0.81"/><circle cx="57" cy="202" r="2.0" fill="#fff" opacity="0.53"/><path d="M1113.3687941607698 160.0421696964055 Q1113.3687941607698 168.11468600588034 1121.4413104702446 168.11468600588034 Q1113.3687941607698 168.11468600588034 1113.3687941607698 176.1872023153552 Q1113.3687941607698 168.11468600588034 1105.296277851295 168.11468600588034 Q1113.3687941607698 168.11468600588034 1113.3687941607698 160.0421696964055Z" fill="#fff" opacity="0.9602321367200364"/><circle cx="414" cy="12" r="1.7" fill="#fff" opacity="0.77"/><circle cx="330" cy="63" r="2.6" fill="#fff" opacity="0.76"/><circle cx="708" cy="295" r="1.7" fill="#fff" opacity="0.77"/><circle cx="324" cy="147" r="2.5" fill="#fff" opacity="0.90"/><path d="M1400.8248905719747 123.86727995499906 Q1400.8248905719747 131.78281589376877 1408.7404265107443 131.78281589376877 Q1400.8248905719747 131.78281589376877 1400.8248905719747 139.69835183253846 Q1400.8248905719747 131.78281589376877 1392.909354633205 131.78281589376877 Q1400.8248905719747 131.78281589376877 1400.8248905719747 123.86727995499906Z" fill="#fff" opacity="0.6582434222470691"/><circle cx="225" cy="168" r="2.5" fill="#fff" opacity="0.87"/><circle cx="1134" cy="314" r="1.6" fill="#fff" opacity="0.49"/><circle cx="722" cy="97" r="1.5" fill="#fff" opacity="0.63"/><circle cx="999" cy="167" r="1.7" fill="#fff" opacity="0.86"/><path d="M1561.6176792021588 148.324306853174 Q1561.6176792021588 153.69770293795673 1566.9910752869416 153.69770293795673 Q1561.6176792021588 153.69770293795673 1561.6176792021588 159.07109902273947 Q1561.6176792021588 153.69770293795673 1556.244283117376 153.69770293795673 Q1561.6176792021588 153.69770293795673 1561.6176792021588 148.324306853174Z" fill="#fff" opacity="0.5157428878475864"/><circle cx="1389" cy="21" r="2.3" fill="#fff" opacity="0.71"/><circle cx="498" cy="263" r="1.2" fill="#fff" opacity="0.47"/><circle cx="729" cy="16" r="2.5" fill="#fff" opacity="0.53"/><circle cx="233" cy="23" r="2.2" fill="#fff" opacity="0.65"/><path d="M1005.3434935653112 209.88693449057251 Q1005.3434935653112 218.92385904530357 1014.3804181200422 218.92385904530357 Q1005.3434935653112 218.92385904530357 1005.3434935653112 227.96078360003463 Q1005.3434935653112 218.92385904530357 996.3065690105801 218.92385904530357 Q1005.3434935653112 218.92385904530357 1005.3434935653112 209.88693449057251Z" fill="#fff" opacity="0.9792303259595051"/><circle cx="1091" cy="72" r="2.0" fill="#fff" opacity="0.50"/><circle cx="27" cy="160" r="2.3" fill="#fff" opacity="0.50"/><circle cx="440" cy="119" r="2.3" fill="#fff" opacity="0.69"/><circle cx="981" cy="251" r="1.8" fill="#fff" opacity="0.84"/><path d="M1441.8544370964023 26.418491346478664 Q1441.8544370964023 36.081510485524475 1451.5174562354482 36.081510485524475 Q1441.8544370964023 36.081510485524475 1441.8544370964023 45.74452962457029 Q1441.8544370964023 36.081510485524475 1432.1914179573564 36.081510485524475 Q1441.8544370964023 36.081510485524475 1441.8544370964023 26.418491346478664Z" fill="#fff" opacity="0.8611885882465995"/><circle cx="215" cy="154" r="2.2" fill="#fff" opacity="0.90"/><circle cx="605" cy="191" r="2.6" fill="#fff" opacity="0.84"/><circle cx="1502" cy="157" r="2.2" fill="#fff" opacity="0.51"/><circle cx="1151" cy="272" r="2.2" fill="#fff" opacity="0.79"/><path d="M347.0085950405983 287.89229749301415 Q347.0085950405983 297.7947632495438 356.91106079712796 297.7947632495438 Q347.0085950405983 297.7947632495438 347.0085950405983 307.6972290060734 Q347.0085950405983 297.7947632495438 337.1061292840687 297.7947632495438 Q347.0085950405983 297.7947632495438 347.0085950405983 287.89229749301415Z" fill="#fff" opacity="0.9886792611697972"/><circle cx="858" cy="263" r="1.7" fill="#fff" opacity="0.90"/><circle cx="1362" cy="120" r="1.3" fill="#fff" opacity="0.64"/><circle cx="879" cy="255" r="2.0" fill="#fff" opacity="0.42"/><circle cx="1288" cy="29" r="2.5" fill="#fff" opacity="0.50"/><polygon points="180.0,81.0 182.2,86.9 188.6,87.2 183.6,91.2 185.3,97.3 180.0,93.8 174.7,97.3 176.4,91.2 171.4,87.2 177.8,86.9" fill="#fff7d6" opacity="1"/><polygon points="260.0,101.0 262.2,106.9 268.6,107.2 263.6,111.2 265.3,117.3 260.0,113.8 254.7,117.3 256.4,111.2 251.4,107.2 257.8,106.9" fill="#fff7d6" opacity="1"/><polygon points="330.0,141.0 332.2,146.9 338.6,147.2 333.6,151.2 335.3,157.3 330.0,153.8 324.7,157.3 326.4,151.2 321.4,147.2 327.8,146.9" fill="#fff7d6" opacity="1"/><polygon points="400.0,151.0 402.2,156.9 408.6,157.2 403.6,161.2 405.3,167.3 400.0,163.8 394.7,167.3 396.4,161.2 391.4,157.2 397.8,156.9" fill="#fff7d6" opacity="1"/><polygon points="410.0,221.0 412.2,226.9 418.6,227.2 413.6,231.2 415.3,237.3 410.0,233.8 404.7,237.3 406.4,231.2 401.4,227.2 407.8,226.9" fill="#fff7d6" opacity="1"/><polygon points="330.0,231.0 332.2,236.9 338.6,237.2 333.6,241.2 335.3,247.3 330.0,243.8 324.7,247.3 326.4,241.2 321.4,237.2 327.8,236.9" fill="#fff7d6" opacity="1"/><polyline points="180,90 260,110 330,150 400,160 410,230 330,240" fill="none" stroke="#fff7d6" stroke-width="2" opacity=".5"/><path d="M0 420 q50.0 -10 100.0 0 t100.0 0 q50.0 -10 100.0 0 t100.0 0 q50.0 -10 100.0 0 t100.0 0 q50.0 -10 100.0 0 t100.0 0 q50.0 -10 100.0 0 t100.0 0 q50.0 -10 100.0 0 t100.0 0 q50.0 -10 100.0 0 t100.0 0 q50.0 -10 100.0 0 t100.0 0 V620 H0Z" fill="#2a2466" opacity="1"/><path d="M0 600 L0 450 Q150.0 432 300 443 Q450.0 428 600 444 Q750.0 436 900 448 Q1050.0 416 1200 455 Q1350.0 420 1500 445 Q1650.0 425 1800 446 L1600 600Z" fill="#1f1a4d"/><g stroke="#d94a3a" stroke-width="10" fill="none"><path d="M0 380 H1600" /><path d="M240 380 V150 M1160 380 V150"/><path d="M240 150 Q700 350 1160 150" /></g><path d="M300 380 V330" stroke="#d94a3a" stroke-width="3"/><path d="M360 380 V322" stroke="#d94a3a" stroke-width="3"/><path d="M420 380 V315" stroke="#d94a3a" stroke-width="3"/><path d="M480 380 V309" stroke="#d94a3a" stroke-width="3"/><path d="M540 380 V305" stroke="#d94a3a" stroke-width="3"/><path d="M600 380 V302" stroke="#d94a3a" stroke-width="3"/><path d="M660 380 V300" stroke="#d94a3a" stroke-width="3"/><path d="M720 380 V300" stroke="#d94a3a" stroke-width="3"/><path d="M780 380 V301" stroke="#d94a3a" stroke-width="3"/><path d="M840 380 V304" stroke="#d94a3a" stroke-width="3"/><path d="M900 380 V308" stroke="#d94a3a" stroke-width="3"/><path d="M960 380 V313" stroke="#d94a3a" stroke-width="3"/><path d="M1020 380 V319" stroke="#d94a3a" stroke-width="3"/><path d="M1080 380 V327" stroke="#d94a3a" stroke-width="3"/><rect y="500" width="1600" height="120" fill="#141033"/><g transform="translate(760 545) scale(1.5)"><path d="M-110 0 L-110 -42 Q-108 -60 -84 -66 L-40 -84 Q-30 -88 -14 -88 L46 -88 Q64 -88 76 -72 L104 -40 Q112 -34 112 -22 L112 0Z" fill="#bfe1ee" stroke="#1a1a24" stroke-width="5" stroke-linejoin="round"/><path d="M-92 -50 L-66 -66 L-30 -76 L-30 -46Z" fill="#ffe9a8" stroke="#1a1a24" stroke-width="4"/><path d="M-18 -76 L36 -76 L36 -46 L-18 -46Z" fill="#ffe9a8" stroke="#1a1a24" stroke-width="4"/><path d="M48 -76 L72 -70 L94 -46 L48 -46Z" fill="#ffe9a8" stroke="#1a1a24" stroke-width="4"/><circle cx="-60" cy="4" r="20" fill="#1a1a24"/><circle cx="-60" cy="4" r="8" fill="#ccc"/><circle cx="66" cy="4" r="20" fill="#1a1a24"/><circle cx="66" cy="4" r="8" fill="#ccc"/></g><rect x="620" y="424" width="70" height="52" fill="#c69c6d" stroke="#1a1a24" stroke-width="4" transform="translate(220 40) rotate(-3)"/><polygon points="1230.0,290.0 1232.5,296.6 1239.5,296.9 1234.0,301.3 1235.9,308.1 1230.0,304.2 1224.1,308.1 1226.0,301.3 1220.5,296.9 1227.5,296.6" fill="#f7c948" opacity="1"/><polygon points="1340.0,212.0 1342.0,217.3 1347.6,217.5 1343.2,221.0 1344.7,226.5 1340.0,223.4 1335.3,226.5 1336.8,221.0 1332.4,217.5 1338.0,217.3" fill="#f7c948" opacity="1"/></svg>