<svg xmlns="http://www.w3.org/2000/svg" viewBox="0 0 1600 600" width="1600" height="600"><defs><linearGradient id="w3" x1="0" y1="0" x2="0" y2="1"><stop offset="0" stop-color="#14113a"/><stop offset="1" stop-color="#3b2f86"/></linearGradient></defs><rect width="1600" height="600" fill="url(#w3)"/><path d="M741.5516253477339 111.31438690478 Q741.5516253477339 117.00708396735227 747.2443224103062 117.00708396735227 Q741.5516253477339 117.00708396735227 741.5516253477339 122.69978102992455 Q741.5516253477339 117.00708396735227 735.8589282851616 117.00708396735227 Q741.5516253477339 117.00708396735227 741.5516253477339 111.31438690478Z" fill="#fff" opacity="0.9332809249931706"/><circle cx="20" cy="155" r="2.6" fill="#fff" opacity="0.44"/><circle cx="886" cy="188" r="1.3" fill="#fff" opacity="0.61"/><circle cx="1121" cy="140" r="2.4" fill="#fff" opacity="0.49"/><circle cx="386" cy="40" r="2.0" fill="#fff" opacity="0.91"/><path d="M942.8769622747418 227.150840208506 Q942.8769622747418 234.06916443276924 949.795286499005 234.06916443276924 Q942.8769622747418 234.06916443276924 942.8769622747418 240.9874886570325 Q942.8769622747418 234.06916443276924 935.9586380504786 234.06916443276924 Q942.8769622747418 234.06916443276924 942.8769622747418 227.150840208506Z" fill="#fff" opacity="0.8730476084622143"/><circle cx="171" cy="93" r="2.3" fill="#fff" opacity="0.80"/><circle cx="676" cy="34" r="1.6" fill="#fff" opacity="0.52"/><circle cx="454" cy="244" r="1.5" fill="#fff" opacity="0.89"/><circle cx="1399" cy="24" r="1.8" fill="#fff" opacity="0.67"/><path d="M47.10339109628363 122.48774958198183 Q47.10339109628363 132.0198027117566 56.6354442260584 132.0198027117566 Q47.10339109628363 132.0198027117566 47.10339109628363 141.55185584153136 Q47.10339109628363 132.0198027117566 37.571337966508864 132.0198027117566 Q47.10339109628363 132.0198027117566 47.10339109628363 122.48774958198183Z" fill="#fff" opacity="0.5560231356472245"/><circle cx="953" cy="43" r="2.1" fill="#fff" opacity="0.89"/><circle cx="331" cy="10" r="1.3" fill="#fff" opacity="0.70"/><circle cx="38" cy="33" r="2.0" fill="#fff" opacity="0.91"/><circle cx="674" cy="124" r="2.2" fill="#fff" opacity="0.45"/><path d="M926.0842407469777 50.341674572219986 Q926.0842407469777 58.38611631391134 934.128682488669 58.38611631391134 Q926.0842407469777 58.38611631391134 926.0842407469777 66.43055805560269 Q926.0842407469777 58.38611631391134 918.0397990052863 58.38611631391134 Q926.0842407469777 58.38611631391134 926.0842407469777 50.341674572219986Z" fill="#fff" opacity="0.9791629539474848"/><circle cx="96" cy="170" r="2.2" fill="#fff" opacity="0.48"/><circle cx="434" cy="299" r="2.8" fill="#fff" opacity="0.47"/><circle cx="1125" cy="286" r="1.6" fill="#fff" opacity="0.74"/><circle cx="78" cy="115" r="2.3" fill="#fff" opacity="0.72"/><path d="M1233.9075015976098 26.591830653864733 Q1233.9075015976098 33.32782141322127 1240.6434923569664 33.32782141322127 Q1233.9075015976098 33.32782141322127 1233.9075015976098 40.06381217257781 Q1233.9075015976098 33.32782141322127 1227.1715108382532 33.32782141322127 Q1233.9075015976098 33.32782141322127 1233.9075015976098 26.591830653864733Z" fill="#fff" opacity="0.9320180299941767"/><circle cx="933" cy="140" r="1.8" fill="#fff" opacity="0.94"/><circle cx="918" cy="13" r="2.5" fill="#fff" opacity="0.58"/><circle cx="695" cy="70" r="1.9" fill="#fff" opacity="0.58"/><circle cx="150" cy="192" r="1.4" fill="#fff" opacity="0.83"/><path d="M50.11792184847042 226.93288021909981 Q50.11792184847042 235.97062933181905 59.15567096118965 235.97062933181905 Q50.11792184847042 235.97062933181905 50.11792184847042 245.0083784445383 Q50.11792184847042 235.97062933181905 41.080172735751184 235.97062933181905 Q50.11792184847042 235.97062933181905 50.11792184847042 226.93288021909981Z" fill="#fff" opacity="0.7486653005558201"/><circle cx="1131" cy="80" r="2.4" fill="#fff" opacity="0.63"/><circle cx="375" cy="290" r="1.8" fill="#fff" opacity="0.61"/><circle cx="1369" cy="116" r="2.3" fill="#fff" opacity="0.49"/><circle cx="1342" cy="84" r="1.3" fill="#fff" opacity="0.94"/><path d="M282.95472067205594 274.45277728400623 Q282.95472067205594 284.38360777460514 292.88555116265485 284.38360777460514 Q282.95472067205594 284.38360777460514 282.95472067205594 294.31443826520405 Q282.95472067205594 284.38360777460514 273.02389018145703 284.38360777460514 Q282.95472067205594 284.38360777460514 282.95472067205594 274.45277728400623Z" fill="#fff" opacity="0.8032788230043624"/><circle cx="29" cy="26" r="1.5" fill="#fff" opacity="0.61"/><circle cx="976" cy="290" r="1.8" fill="#fff" opacity="0.48"/><circle cx="898" cy="48" r="1.3" fill="#fff" opacity="0.71"/><circle cx="1110" cy="27" r="1.9" fill="#fff" opacity="0.79"/><path d="M1217.3889954084652 110.4003728608258 Q1217.3889954084652 119.83625620414783 1226.8248787517873 119.83625620414783 Q1217.3889954084652 119.83625620414783 1217.3889954084652 129.27213954746986 Q1217.3889954084652 119.83625620414783 1207.9531120651432 119.83625620414783 Q1217.3889954084652 119.83625620414783 1217.3889954084652 110.4003728608258Z" fill="#fff" opacity="0.584539933738069"/><circle cx="1140" cy="233" r="2.6" fill="#fff" opacity="0.67"/><circle cx="167" cy="22" r="2.0" fill="#fff" opacity="0.50"/><circle cx="1005" cy="33" r="2.4" fill="#fff" opacity="0.52"/><circle cx="31" cy="59" r="1.9" fill="#fff" opacity="0.71"/><rect x="560" y="70" width="480" height="380" rx="24" fill="#241f5c" stroke="#dcd3f3" stroke-width="14"/><rect x="574" y="84" width="452" height="352" rx="14" fill="#0f0c2e"/><circle cx="860" cy="200" r="96.0" fill="#fff7d6" opacity=".12"/><circle cx="860" cy="200" r="78.08" fill="#fff7d6" opacity=".18"/><circle cx="860" cy="200" r="64" fill="#fff7d6"/><circle cx="840.8" cy="193.6" r="12.8" fill="#e9dfb0"/><circle cx="882.4" cy="219.2" r="8.96" fill="#e9dfb0"/><path d="M241.32712794268582 26.192221139241248 Q241.32712794268582 33.17251235229465 248.30741915573924 33.17251235229465 Q241.32712794268582 33.17251235229465 241.32712794268582 40.15280356534806 Q241.32712794268582 33.17251235229465 234.3468367296324 33.17251235229465 Q241.32712794268582 33.17251235229465 241.32712794268582 26.192221139241248Z" fill="#fff" opacity="0.5774861354012051"/><circle cx="75" cy="106" r="2.7" fill="#fff" opacity="0.84"/><circle cx="760" cy="62" r="2.1" fill="#fff" opacity="0.55"/><circle cx="179" cy="34" r="1.5" fill="#fff" opacity="0.91"/><circle cx="822" cy="205" r="2.5" fill="#fff" opacity="0.51"/><path d="M313.6529581535449 152.32257344441015 Q313.6529581535449 160.98204698880375 322.31243169793845 160.98204698880375 Q313.6529581535449 160.98204698880375 313.6529581535449 169.64152053319734 Q313.6529581535449 160.98204698880375 304.9934846091513 160.98204698880375 Q313.6529581535449 160.98204698880375 313.6529581535449 152.32257344441015Z" fill="#fff" opacity="0.9273241789956737"/><circle cx="872" cy="29" r="2.2" fill="#fff" opacity="0.77"/><circle cx="506" cy="51" r="2.0" fill="#fff" opacity="0.45"/><circle cx="926" cy="219" r="2.1" fill="#fff" opacity="0.57"/><circle cx="901" cy="148" r="2.6" fill="#fff" opacity="0.87"/><path d="M508.20492782609654 101.00827216319267 Q508.20492782609654 109.00283452414261 516.1994901870465 109.00283452414261 Q508.20492782609654 109.00283452414261 508.20492782609654 116.99739688509256 Q508.20492782609654 109.00283452414261 500.2103654651466 109.00283452414261 Q508.20492782609654 109.00283452414261 508.20492782609654 101.00827216319267Z" fill="#fff" opacity="0.7155215086466535"/><circle cx="168" cy="82" r="2.5" fill="#fff" opacity="0.42"/><circle cx="55" cy="161" r="1.6" fill="#fff" opacity="0.69"/><circle cx="472" cy="92" r="2.8" fill="#fff" opacity="0.51"/><circle cx="415" cy="57" r="2.2" fill="#fff" opacity="0.55"/><path d="M358.714139515205 183.65066964542416 Q358.714139515205 190.25401416167287 365.31748403145366 190.25401416167287 Q358.714139515205 190.25401416167287 358.714139515205 196.85735867792158 Q358.714139515205 190.25401416167287 352.1107949989563 190.25401416167287 Q358.714139515205 190.25401416167287 358.714139515205 183.65066964542416Z" fill="#fff" opacity="0.779264491791696"/><circle cx="896" cy="33" r="1.3" fill="#fff" opacity="0.53"/><circle cx="760" cy="158" r="1.6" fill="#fff" opacity="0.58"/><circle cx="184" cy="120" r="1.3" fill="#fff" opacity="0.78"/><circle cx="888" cy="241" r="2.4" fill="#fff" opacity="0.93"/><path d="M27.823774787441323 68.68510438296514 Q27.823774787441323 78.51513816780574 37.65380857228194 78.51513816780574 Q27.823774787441323 78.51513816780574 27.823774787441323 88.34517195264635 Q27.823774787441323 78.51513816780574 17.993741002600707 78.51513816780574 Q27.823774787441323 78.51513816780574 27.823774787441323 68.68510438296514Z" fill="#fff" opacity="0.8876197176125742"/><circle cx="412" cy="238" r="2.2" fill="#fff" opacity="0.85"/><path d="M800 84 V436 M574 260 H1026" stroke="#dcd3f3" stroke-width="10"/><rect y="500" width="1600" height="120" fill="#22204d"/><path d="M0 500 H1600" stroke="#b7a2e8" stroke-width="4" opacity=".4"/><circle cx="422.6690630123236" cy="310.3454436361378" r="22.578475662634695" fill="#fff" fill-opacity="0.21" stroke="#fff" stroke-opacity="0.6" stroke-width="1.8"/><circle cx="414.76659653040144" cy="302.44297715421567" r="4.064125619274245" fill="#fff" fill-opacity="0.6"/><circle cx="949.64485557852" cy="347.83133988970485" r="12.227981214153646" fill="#fff" fill-opacity="0.21" stroke="#fff" stroke-opacity="0.6" stroke-width="1.5"/><circle cx="945.3650621535662" cy="343.5515464647511" r="2.201036618547656" fill="#fff" fill-opacity="0.6"/><circle cx="98.96190783901875" cy="445.2357777643716" r="18.81803648715226" fill="#fff" fill-opacity="0.21" stroke="#fff" stroke-opacity="0.6" stroke-width="1.5"/><circle cx="92.37559506851547" cy="438.6494649938683" r="3.3872465676874066" fill="#fff" fill-opacity="0.6"/><circle cx="417.4365839072428" cy="517.9966243348129" r="25.98895925576323" fill="#fff" fill-opacity="0.21" stroke="#fff" stroke-opacity="0.6" stroke-width="2.1"/><circle cx="408.34044816772564" cy="508.9004885952957" r="4.6780126660373815" fill="#fff" fill-opacity="0.6"/><circle cx="1284.5044898351198" cy="279.12247600169405" r="31.728316778501505" fill="#fff" fill-opacity="0.21" stroke="#fff" stroke-opacity="0.6" stroke-width="2.5"/><circle cx="1273.3995789626442" cy="268.01756512921855" r="5.71109702013027" fill="#fff" fill-opacity="0.6"/><circle cx="296.88765059387447" cy="352.0359028111867" r="39.513540442872085" fill="#fff" fill-opacity="0.21" stroke="#fff" stroke-opacity="0.6" stroke-width="3.2"/><circle cx="283.05791143886927" cy="338.2061636561815" r="7.112437279716975" fill="#fff" fill-opacity="0.6"/><circle cx="833.3809429519539" cy="400.97585385268553" r="32.827990162566145" fill="#fff" fill-opacity="0.21" stroke="#fff" stroke-opacity="0.6" stroke-width="2.6"/><circle cx="821.8911463950558" cy="389.48605729578736" r="5.909038229261906" fill="#fff" fill-opacity="0.6"/><circle cx="172.20527104687613" cy="408.78591329193597" r="30.097385819664797" fill="#fff" fill-opacity="0.21" stroke="#fff" stroke-opacity="0.6" stroke-width="2.4"/><circle cx="161.67118600999345" cy="398.2518282550533" r="5.417529447539663" fill="#fff" fill-opacity="0.6"/><circle cx="513.8254297026258" cy="74.265405676085" r="39.427926057284154" fill="#fff" fill-opacity="0.21" stroke="#fff" stroke-opacity="0.6" stroke-width="3.2"/><circle cx="500.02565558257635" cy="60.46563155603555" r="7.097026690311147" fill="#fff" fill-opacity="0.6"/><circle cx="760.7586876782723" cy="390.6590050702694" r="39.87963520868638" fill="#fff" fill-opacity="0.21" stroke="#fff" stroke-opacity="0.6" stroke-width="3.2"/><circle cx="746.8008153552321" cy="376.70113274722917" r="7.178334337563548" fill="#fff" fill-opacity="0.6"/><circle cx="1108.3464564001317" cy="483.70538708858226" r="23.428755736025295" fill="#fff" fill-opacity="0.21" stroke="#fff" stroke-opacity="0.6" stroke-width="1.9"/><circle cx="1100.1463918925228" cy="475.5053225809734" r="4.217176032484553" fill="#fff" fill-opacity="0.6"/><circle cx="1233.3086302187287" cy="264.5256857833499" r="41.809948537953716" fill="#fff" fill-opacity="0.21" stroke="#fff" stroke-opacity="0.6" stroke-width="3.3"/><circle cx="1218.6751482304448" cy="249.8922037950661" r="7.525790736831668" fill="#fff" fill-opacity="0.6"/><circle cx="1345.5679908867799" cy="104.82898247620352" r="14.622941246822743" fill="#fff" fill-opacity="0.21" stroke="#fff" stroke-opacity="0.6" stroke-width="1.5"/><circle cx="1340.4499614503918" cy="99.71095303981556" r="2.6321294244280935" fill="#fff" fill-opacity="0.6"/><circle cx="392.46119537571775" cy="504.12086389317335" r="24.829503465332596" fill="#fff" fill-opacity="0.21" stroke="#fff" stroke-opacity="0.6" stroke-width="2.0"/><circle cx="383.77086916285134" cy="495.43053768030694" r="4.469310623759867" fill="#fff" fill-opacity="0.6"/><circle cx="982.3735388481977" cy="198.47205127573247" r="27.246261450188022" fill="#fff" fill-opacity="0.21" stroke="#fff" stroke-opacity="0.6" stroke-width="2.2"/><circle cx="972.8373473406318" cy="188.93585976816667" r="4.904327061033844" fill="#fff" fill-opacity="0.6"/><circle cx="635.6474127366597" cy="221.41882483428282" r="29.892519651782358" fill="#fff" fill-opacity="0.21" stroke="#fff" stroke-opacity="0.6" stroke-width="2.4"/><circle cx="625.1850308585359" cy="210.95644295615898" r="5.380653537320824" fill="#fff" fill-opacity="0.6"/><circle cx="921.3225818770865" cy="475.93281458997654" r="33.187392645588865" fill="#fff" fill-opacity="0.21" stroke="#fff" stroke-opacity="0.6" stroke-width="2.7"/><circle cx="909.7069944511304" cy="464.31722716402044" r="5.973730676205996" fill="#fff" fill-opacity="0.6"/><circle cx="1417.6816657280244" cy="453.9442605425076" r="43.693647925539715" fill="#fff" fill-opacity="0.21" stroke="#fff" stroke-opacity="0.6" stroke-width="3.5"/><circle cx="1402.3888889540856" cy="438.6514837685687" r="7.864856626597148" fill="#fff" fill-opacity="0.6"/><circle cx="1046.6339007140264" cy="135.02582610669208" r="39.261676125953116" fill="#fff" fill-opacity="0.21" stroke="#fff" stroke-opacity="0.6" stroke-width="3.1"/><circle cx="1032.8923140699428" cy="121.2842394626085" r="7.067101702671561" fill="#fff" fill-opacity="0.6"/><circle cx="1469.0714441250484" cy="476.16015287562885" r="29.349655118127" fill="#fff" fill-opacity="0.21" stroke="#fff" stroke-opacity="0.6" stroke-width="2.3"/><circle cx="1458.799064833704" cy="465.8877735842844" r="5.28293792126286" fill="#fff" fill-opacity="0.6"/><circle cx="1107.8965090508468" cy="157.1174924907752" r="38.27466962929404" fill="#fff" fill-opacity="0.21" stroke="#fff" stroke-opacity="0.6" stroke-width="3.1"/><circle cx="1094.500374680594" cy="143.72135812052227" r="6.889440533272927" fill="#fff" fill-opacity="0.6"/><circle cx="905.88658738585" cy="191.0804325136544" r="12.157659622937798" fill="#fff" fill-opacity="0.21" stroke="#fff" stroke-opacity="0.6" stroke-width="1.5"/><circle cx="901.6314065178218" cy="186.82525164562617" r="2.1883787321288035" fill="#fff" fill-opacity="0.6"/><circle cx="1309.6771833286593" cy="515.3107668639274" r="13.009615165730764" fill="#fff" fill-opacity="0.21" stroke="#fff" stroke-opacity="0.6" stroke-width="1.5"/><circle cx="1305.1238180206535" cy="510.7574015559216" r="2.3417307298315375" fill="#fff" fill-opacity="0.6"/><circle cx="1232.8572626108028" cy="248.81244057911806" r="15.126022731395526" fill="#fff" fill-opacity="0.21" stroke="#fff" stroke-opacity="0.6" stroke-width="1.5"/><circle cx="1227.5631546548143" cy="243.51833262312962" r="2.7226840916511947" fill="#fff" fill-opacity="0.6"/><circle cx="503.2033954194496" cy="413.64426814757854" r="39.67407883735885" fill="#fff" fill-opacity="0.21" stroke="#fff" stroke-opacity="0.6" stroke-width="3.2"/><circle cx="489.31746782637396" cy="399.7583405545029" r="7.141334190724592" fill="#fff" fill-opacity="0.6"/><circle cx="143.63368802654247" cy="342.68496312463196" r="11.527968278865231" fill="#fff" fill-opacity="0.21" stroke="#fff" stroke-opacity="0.6" stroke-width="1.5"/><circle cx="139.59889912893965" cy="338.65017422702914" r="2.0750342901957417" fill="#fff" fill-opacity="0.6"/><g transform="translate(250 505)"><ellipse cx="0" cy="0" rx="62" ry="40" fill="#f7c948" stroke="#1a1a24" stroke-width="4"/><circle cx="40" cy="-38" r="30" fill="#f7c948" stroke="#1a1a24" stroke-width="4"/><path d="M66 -36 l30 8 l-30 10Z" fill="#f28a3a" stroke="#1a1a24" stroke-width="3"/><circle cx="48" cy="-46" r="4" fill="#1a1a24"/><path d="M-50 -8 q20 -18 42 0" fill="none" stroke="#1a1a24" stroke-width="3"/></g><g transform="translate(1320 600) rotate(-6) scale(1.2)"><path d="M0 0 C40 -10 70 -60 40 -110 C25 -135 55 -150 80 -130" stroke="#1a1a24" stroke-width="30" stroke-linecap="round" fill="none"/><path d="M62 -138 C70 -138 76 -135 80 -130" stroke="#ffffff" stroke-width="30" stroke-linecap="round" fill="none"/></g></svg>