<svg xmlns="http://www.w3.org/2000/svg" viewBox="0 0 1600 600" width="1600" height="600"><defs><linearGradient id="w6" x1="0" y1="0" x2="0" y2="1"><stop offset="0" stop-color="#1d1a4a"/><stop offset="1" stop-color="#2e2a70"/></linearGradient></defs><rect width="1600" height="600" fill="url(#w6)"/><rect y="500" width="1600" height="120" fill="#141033"/><rect x="70" y="90" width="215" height="160" rx="10" fill="#0c0b22" stroke="#444" stroke-width="6"/><rect x="80" y="100" width="195" height="140" rx="4" fill="#3a5fc8"/><path d="M80 210 Q170 185 275 208 V240 H80Z" fill="#3a9a5a" opacity=".85"/><circle cx="220" cy="140" r="9" fill="#fff"/><rect x="325" y="90" width="215" height="160" rx="10" fill="#0c0b22" stroke="#444" stroke-width="6"/><rect x="335" y="100" width="195" height="140" rx="4" fill="#3a5fc8"/><path d="M335 210 Q425 185 530 208 V240 H335Z" fill="#3a9a5a" opacity=".85"/><circle cx="475" cy="140" r="9" fill="#fff"/><rect x="580" y="90" width="215" height="160" rx="10" fill="#0c0b22" stroke="#444" stroke-width="6"/><rect x="590" y="100" width="195" height="140" rx="4" fill="#3a5fc8"/><path d="M590 210 Q680 185 785 208 V240 H590Z" fill="#3a9a5a" opacity=".85"/><circle cx="730" cy="140" r="9" fill="#fff"/><rect x="835" y="90" width="215" height="160" rx="10" fill="#0c0b22" stroke="#444" stroke-width="6"/><rect x="845" y="100" width="195" height="140" rx="4" fill="#3a5fc8"/><path d="M845 210 Q935 185 1040 208 V240 H845Z" fill="#3a9a5a" opacity=".85"/><circle cx="985" cy="140" r="9" fill="#fff"/><rect x="1090" y="90" width="215" height="160" rx="10" fill="#0c0b22" stroke="#444" stroke-width="6"/><rect x="1100" y="100" width="195" height="140" rx="4" fill="#3a5fc8"/><path d="M1100 210 Q1190 185 1295 208 V240 H1100Z" fill="#3a9a5a" opacity=".85"/><circle cx="1240" cy="140" r="9" fill="#fff"/><rect x="1345" y="90" width="215" height="160" rx="10" fill="#0c0b22" stroke="#444" stroke-width="6"/><rect x="1355" y="100" width="195" height="140" rx="4" fill="#3a5fc8"/><path d="M1355 210 Q1445 185 1550 208 V240 H1355Z" fill="#3a9a5a" opacity=".85"/><circle cx="1495" cy="140" r="9" fill="#fff"/><rect x="70" y="295" width="215" height="160" rx="10" fill="#0c0b22" stroke="#444" stroke-width="6"/><rect x="80" y="305" width="195" height="140" rx="4" fill="#3a5fc8"/><path d="M80 415 Q170 390 275 413 V445 H80Z" fill="#3a9a5a" opacity=".85"/><circle cx="220" cy="345" r="9" fill="#fff"/><rect x="325" y="295" width="215" height="160" rx="10" fill="#0c0b22" stroke="#444" stroke-width="6"/><rect x="335" y="305" width="195" height="140" rx="4" fill="#3a5fc8"/><path d="M335 415 Q425 390 530 413 V445 H335Z" fill="#3a9a5a" opacity=".85"/><circle cx="475" cy="345" r="9" fill="#fff"/><rect x="580" y="295" width="215" height="160" rx="10" fill="#0c0b22" stroke="#444" stroke-width="6"/><rect x="590" y="305" width="195" height="140" rx="4" fill="#3a5fc8"/><path d="M590 415 Q680 390 785 413 V445 H590Z" fill="#3a9a5a" opacity=".85"/><circle cx="730" cy="345" r="9" fill="#fff"/><rect x="835" y="295" width="215" height="160" rx="10" fill="#0c0b22" stroke="#444" stroke-width="6"/><rect x="845" y="305" width="195" height="140" rx="4" fill="#5a3fc8"/><path d="M845 415 Q935 390 1040 413 V445 H845Z" fill="#3a9a5a" opacity=".85"/><circle cx="985" cy="345" r="9" fill="#fff"/><rect x="1090" y="295" width="215" height="160" rx="10" fill="#0c0b22" stroke="#444" stroke-width="6"/><rect x="1100" y="305" width="195" height="140" rx="4" fill="#3a5fc8"/><path d="M1100 415 Q1190 390 1295 413 V445 H1100Z" fill="#3a9a5a" opacity=".85"/><circle cx="1240" cy="345" r="9" fill="#fff"/><rect x="1345" y="295" width="215" height="160" rx="10" fill="#0c0b22" stroke="#444" stroke-width="6"/><rect x="1355" y="305" width="195" height="140" rx="4" fill="#3a5fc8"/><path d="M1355 415 Q1445 390 1550 413 V445 H1355Z" fill="#3a9a5a" opacity=".85"/><circle cx="1495" cy="345" r="9" fill="#fff"/><path d="M905 375 l14 -40 l16 30 M975 375 l-14 -40 l-16 30" fill="none"/><path d="M903 391 L915 347 L939 373 Q943 371 947 373 L971 347 L983 391 Q943 415 903 391Z" fill="#1a1a24" stroke="#fff" stroke-width="3"/><g transform="translate(1500 590) rotate(4) scale(0.9)"><path d="M0 0 C40 -10 70 -60 40 -110 C25 -135 55 -150 80 -130" stroke="#1a1a24" stroke-width="30" stroke-linecap="round" fill="none"/><path d="M62 -138 C70 -138 76 -135 80 -130" stroke="#ffffff" stroke-width="30" stroke-linecap="round" fill="none"/></g></svg>